<?xml version="1.0" standalone="no"?>
<!DOCTYPE svg PUBLIC "-//W3C//DTD SVG 20010904//EN"
 "http://www.w3.org/TR/2001/REC-SVG-20010904/DTD/svg10.dtd">
<svg version="1.0" xmlns="http://www.w3.org/2000/svg"
 width="1024.000000pt" height="1024.000000pt" viewBox="0 0 1024.000000 1024.000000"
 preserveAspectRatio="xMidYMid meet">

<g transform="translate(0.000000,1024.000000) scale(0.100000,-0.100000)"
fill="#0096C7" stroke="none">
<path d="M4595 7804 c-86 -7 -205 -24 -344 -50 -539 -101 -1065 -388 -1454
-793 -421 -440 -691 -1035 -758 -1670 -15 -142 -6 -506 15 -646 73 -481 236
-879 515 -1254 114 -152 372 -413 513 -519 293 -220 662 -391 999 -463 99 -22
126 -23 552 -23 l449 -1 -51 22 c-70 31 -352 118 -475 148 -154 36 -403 110
-518 154 -405 153 -800 430 -1094 766 -290 332 -413 550 -459 813 -27 155 -12
272 51 401 l36 74 44 -134 c156 -473 531 -982 962 -1307 276 -207 509 -308
1050 -452 488 -131 761 -241 1032 -417 l95 -62 247 -3 c196 -2 244 0 236 9
-23 28 -299 255 -383 315 -281 201 -514 291 -1045 408 -412 90 -748 247 -1104
515 -533 401 -890 969 -1001 1590 -35 193 -29 499 11 673 49 213 177 446 301
549 53 44 145 104 151 98 2 -2 -12 -31 -32 -64 -72 -117 -133 -305 -162 -496
-18 -121 -18 -390 2 -550 40 -328 166 -661 359 -950 108 -162 186 -254 337
-401 363 -350 695 -525 1243 -655 569 -134 762 -207 1041 -392 121 -79 187
-132 371 -294 194 -171 241 -205 368 -268 138 -68 201 -85 341 -92 133 -7 241
12 357 62 167 71 267 152 356 289 67 103 80 145 58 191 -27 56 -62 58 -173 11
-122 -51 -298 -58 -454 -17 -173 46 -291 118 -515 315 -276 243 -487 346 -800
391 -55 8 -143 15 -195 15 -408 1 -737 75 -1057 236 -662 334 -1093 881 -1189
1509 -18 119 -18 335 1 460 17 116 69 288 125 415 160 364 456 626 858 760
180 60 255 72 437 73 256 1 416 -41 725 -188 321 -153 456 -170 593 -77 51 36
97 115 97 169 0 88 -69 217 -181 337 -206 220 -570 393 -949 451 -101 15 -431
27 -535 19z"/>
<path d="M4630 6761 c-167 -37 -342 -115 -461 -207 -92 -70 -215 -208 -274
-308 -111 -186 -162 -355 -172 -577 -17 -377 116 -721 404 -1044 103 -115 170
-174 303 -271 345 -249 722 -376 1160 -390 283 -9 447 -32 633 -91 203 -64
341 -140 572 -318 195 -150 303 -209 471 -257 115 -33 325 -33 438 0 258 74
460 265 510 480 23 99 1 164 -68 199 -25 13 -44 14 -135 3 -240 -29 -451 39
-730 235 -307 215 -478 304 -699 360 -186 47 -277 56 -527 53 -582 -7 -646 -2
-860 59 -252 72 -467 202 -624 379 -151 170 -221 345 -221 554 0 125 21 217
71 319 110 224 349 343 573 285 131 -34 256 -127 307 -230 22 -45 24 -59 22
-182 -3 -153 7 -186 74 -241 72 -59 144 -63 237 -13 84 46 137 142 157 290 19
135 -26 340 -103 467 -124 204 -332 361 -573 431 -124 36 -357 43 -485 15z"/>
</g>
</svg>
